<svg width="217" height="446" viewBox="0 0 217 446" fill="none" xmlns="http://www.w3.org/2000/svg">
<g filter="url(#filter0_d_0_549)">
<path fill-rule="evenodd" clip-rule="evenodd" d="M108.262 436.333C160.204 436.333 202.312 434.812 202.312 432.934C202.312 431.057 144.638 430.206 108.262 430.206C71.8864 430.206 14.212 431.057 14.212 432.934C14.212 434.812 56.3196 436.333 108.262 436.333Z" fill="black" fill-opacity="0.01"/>
</g>
<g filter="url(#filter1_d_0_549)">
<path fill-rule="evenodd" clip-rule="evenodd" d="M108.237 435.487C158.448 435.487 199.152 434.27 199.152 432.768C199.152 431.266 143.4 430.585 108.237 430.585C73.0736 430.585 17.3217 431.266 17.3217 432.768C17.3217 434.27 58.0257 435.487 108.237 435.487Z" fill="black" fill-opacity="0.01"/>
</g>
<g filter="url(#filter2_d_0_549)">
<path fill-rule="evenodd" clip-rule="evenodd" d="M108.387 433.97C155.136 433.97 193.032 433.361 193.032 432.61C193.032 431.859 141.125 431.519 108.387 431.519C75.6494 431.519 23.7424 431.859 23.7424 432.61C23.7424 433.361 61.6393 433.97 108.387 433.97Z" fill="black" fill-opacity="0.01"/>
</g>
<g clip-path="url(#clip0_0_549)">
<path fill-rule="evenodd" clip-rule="evenodd" d="M39.292 0H177.232C203.748 0 215.186 13.11 215.186 37.9544V395.094C215.186 419.102 202.912 433.048 177.232 433.048H39.292C12.7756 433.048 1.3376 419.938 1.3376 395.094V37.9544C1.3376 13.11 12.7756 0 39.292 0Z" fill="black"/>
<g filter="url(#filter3_i_0_549)">
<path fill-rule="evenodd" clip-rule="evenodd" d="M39.292 1.00317C13.9586 1.00317 2.3408 13.0143 2.3408 37.9544V395.094C2.3408 420.034 13.9586 432.045 39.292 432.045H177.232C201.74 432.045 214.183 419.187 214.183 395.094V37.9544C214.183 13.0143 202.565 1.00317 177.232 1.00317H39.292Z" fill="#C9C6C8"/>
</g>
<path fill-rule="evenodd" clip-rule="evenodd" d="M3.04782 27.3967C5.91202 10.7082 17.5515 3.17676 39.292 3.17676H177.232C198.973 3.17676 210.612 10.7082 213.476 27.3967C209.404 12.4655 197.897 4.68156 177.232 4.68156H39.292C18.6273 4.68156 7.12022 12.4655 3.04782 27.3967ZM2.90551 404.78C5.50776 422.08 17.171 429.871 39.292 429.871H177.232C198.913 429.871 211.153 421.218 213.687 403.866C209.706 419.332 197.747 428.032 177.232 428.032H39.292C18.3812 428.032 6.84749 420.062 2.90551 404.78Z" fill="url(#paint0_linear_0_549)"/>
<path fill-rule="evenodd" clip-rule="evenodd" d="M3.04782 27.3967C5.91202 10.7082 17.5515 3.17676 39.292 3.17676H177.232C198.973 3.17676 210.612 10.7082 213.476 27.3967C209.404 12.4655 197.897 4.68156 177.232 4.68156H39.292C18.6273 4.68156 7.12022 12.4655 3.04782 27.3967ZM2.90551 404.78C5.50776 422.08 17.171 429.871 39.292 429.871H177.232C198.913 429.871 211.153 421.218 213.687 403.866C209.706 419.332 197.747 428.032 177.232 428.032H39.292C18.3812 428.032 6.84749 420.062 2.90551 404.78Z" fill="url(#paint1_linear_0_549)"/>
<path fill-rule="evenodd" clip-rule="evenodd" d="M39.292 4.68164H177.232C203.748 4.68164 215.186 17.4981 215.186 41.7861V390.928C215.186 414.398 202.912 428.032 177.232 428.032H39.292C12.7756 428.032 1.3376 415.216 1.3376 390.928V41.7861C1.3376 17.4981 12.7756 4.68164 39.292 4.68164Z" fill="url(#paint2_linear_0_549)"/>
<path fill-rule="evenodd" clip-rule="evenodd" d="M39.292 4.68164H177.232C203.748 4.68164 215.186 17.4981 215.186 41.7861V390.928C215.186 414.398 202.912 428.032 177.232 428.032H39.292C12.7756 428.032 1.3376 415.216 1.3376 390.928V41.7861C1.3376 17.4981 12.7756 4.68164 39.292 4.68164Z" fill="url(#paint3_linear_0_549)"/>
<path d="M4.77565 37.9544C4.77565 26.0414 7.46786 17.4285 13.0954 11.7902C18.7228 6.15195 27.3356 3.43801 39.292 3.43801H177.232C189.188 3.43801 197.801 6.15195 203.429 11.7902C209.056 17.4285 211.748 26.0414 211.748 37.9544V395.094C211.748 406.579 208.852 415.195 203.117 420.942C197.382 426.689 188.766 429.61 177.232 429.61H39.292C27.3356 429.61 18.7228 426.896 13.0954 421.258C7.46786 415.619 4.77565 407.007 4.77565 395.094V37.9544Z" fill="url(#paint4_linear_0_549)" stroke="black" stroke-width="0.5225"/>
<g filter="url(#filter4_dd_0_549)">
<path fill-rule="evenodd" clip-rule="evenodd" d="M39.292 5.18311H177.232C199.978 5.18311 209.836 15.0601 209.836 37.7871V394.926C209.836 416.815 199.143 427.53 177.232 427.53H39.292C16.5461 427.53 6.688 417.653 6.688 394.926V37.7871C6.688 15.0601 16.5461 5.18311 39.292 5.18311Z" fill="url(#paint5_linear_0_549)"/>
<path fill-rule="evenodd" clip-rule="evenodd" d="M39.292 5.18311H177.232C199.978 5.18311 209.836 15.0601 209.836 37.7871V394.926C209.836 416.815 199.143 427.53 177.232 427.53H39.292C16.5461 427.53 6.688 417.653 6.688 394.926V37.7871C6.688 15.0601 16.5461 5.18311 39.292 5.18311Z" fill="url(#paint6_radial_0_549)"/>
</g>
<path d="M39.292 8.5271C18.4005 8.5271 10.032 16.8993 10.032 37.7871V394.926C10.032 415.814 18.4005 424.186 39.292 424.186H177.232C197.288 424.186 206.492 414.977 206.492 394.926V37.7871C206.492 16.8993 198.123 8.5271 177.232 8.5271H39.292Z" fill="black"/>
</g>
<g clip-path="url(#clip1_0_549)">
<g filter="url(#filter5_i_0_549)">
<path fill-rule="evenodd" clip-rule="evenodd" d="M99.1496 432.379C103.664 432.379 112.989 432.379 117.542 432.379C117.581 432.379 117.619 432.379 117.657 432.38C118.764 432.389 118.655 433.048 117.549 433.048H99.1422C98.0358 433.048 97.9276 432.389 99.0339 432.38C99.0721 432.379 99.1106 432.379 99.1496 432.379Z" fill="#343434"/>
</g>
</g>
<g clip-path="url(#clip2_0_549)">
<g filter="url(#filter6_i_0_549)">
<path fill-rule="evenodd" clip-rule="evenodd" d="M194.797 8.13501C205.154 12.5644 209.836 22.1241 209.836 37.7872V394.926C209.836 409.656 204.994 419.326 195.149 424.076C196.194 421.115 206.158 416.236 206.158 396.598C206.158 387.096 206.158 46.7089 206.158 36.0832C206.158 15.3675 194.49 10.5684 194.797 8.13501Z" fill="white" fill-opacity="0.8"/>
</g>
<g filter="url(#filter7_i_0_549)">
<path fill-rule="evenodd" clip-rule="evenodd" d="M21.73 8.13501C11.3735 12.5644 6.69116 22.1241 6.69116 37.7872V394.926C6.69116 409.656 11.5333 419.326 21.3779 424.076C20.3333 421.115 10.3696 416.236 10.3696 396.598C10.3696 387.096 10.3696 46.7089 10.3696 36.0832C10.3696 15.3675 22.0375 10.5684 21.73 8.13501Z" fill="white" fill-opacity="0.8"/>
</g>
</g>
<rect opacity="0.602808" x="1.3376" y="41.4656" width="3.6784" height="3.0096" fill="black"/>
<rect opacity="0.602808" x="211.508" y="41.4656" width="3.6784" height="3.0096" fill="black"/>
<rect opacity="0.602808" x="1.3376" y="388.573" width="3.6784" height="3.0096" fill="black"/>
<rect opacity="0.602808" x="211.508" y="388.573" width="3.6784" height="3.0096" fill="black"/>
<g clip-path="url(#clip3_0_549)">
<g filter="url(#filter8_ii_0_549)">
<path fill-rule="evenodd" clip-rule="evenodd" d="M1.16722 58.52C0.522583 58.52 0 59.044 0 59.6904V74.0696C0 74.716 0.522583 75.24 1.16722 75.24H1.83421C1.83421 74.3606 1.84544 59.3797 1.83421 58.52H1.16722Z" fill="url(#paint7_linear_0_549)"/>
</g>
<g filter="url(#filter9_ii_0_549)">
<path fill-rule="evenodd" clip-rule="evenodd" d="M1.16722 89.1177C0.787719 89.2111 0.332637 89.4504 0.0896412 89.7903C0.03959 89.8603 0 90.0817 0 90.1458C0 93.3594 0 103.147 0 119.51C0 119.578 0.0557243 119.924 0.089844 120.007C0.286483 120.49 0.628147 120.607 1.16722 120.886H1.83421C1.83421 120.006 1.84544 89.9774 1.83421 89.1177H1.16722Z" fill="url(#paint8_linear_0_549)"/>
</g>
<g filter="url(#filter10_ii_0_549)">
<path fill-rule="evenodd" clip-rule="evenodd" d="M1.16722 128.744C0.787719 128.837 0.332637 129.077 0.0896412 129.417C0.03959 129.487 0 129.708 0 129.772C0 132.986 0 142.774 0 159.136C0 159.205 0.0557243 159.55 0.089844 159.634C0.286483 160.116 0.628147 160.233 1.16722 160.512H1.83421C1.83421 159.633 1.84544 129.604 1.83421 128.744H1.16722Z" fill="url(#paint9_linear_0_549)"/>
</g>
<g filter="url(#filter11_ii_0_549)">
<path fill-rule="evenodd" clip-rule="evenodd" d="M215.357 99.484C215.736 99.5774 216.191 99.8167 216.434 100.157C216.484 100.227 216.524 100.448 216.524 100.512C216.524 103.726 216.524 132.24 216.524 148.603C216.524 148.671 216.468 149.016 216.434 149.1C216.238 149.583 215.896 149.699 215.357 149.978H214.69C214.69 149.099 214.679 100.344 214.69 99.484H215.357Z" fill="url(#paint10_linear_0_549)"/>
<path fill-rule="evenodd" clip-rule="evenodd" d="M215.357 99.484C215.736 99.5774 216.191 99.8167 216.434 100.157C216.484 100.227 216.524 100.448 216.524 100.512C216.524 103.726 216.524 132.24 216.524 148.603C216.524 148.671 216.468 149.016 216.434 149.1C216.238 149.583 215.896 149.699 215.357 149.978H214.69C214.69 149.099 214.679 100.344 214.69 99.484H215.357Z" fill="url(#paint11_linear_0_549)"/>
</g>
</g>
<g opacity="0.801364" clip-path="url(#clip4_0_549)">
<rect x="95.304" y="15.5498" width="26.0832" height="3.5112" rx="1.7556" fill="#1D1C1C"/>
<mask id="mask0_0_549" style="mask-type:alpha" maskUnits="userSpaceOnUse" x="95" y="15" width="27" height="5">
<rect x="95.304" y="15.5498" width="26.0832" height="3.5112" rx="1.7556" fill="white"/>
</mask>
<g mask="url(#mask0_0_549)">
<path fill-rule="evenodd" clip-rule="evenodd" d="M95.304 15.5498H121.387V15.7887H95.304V15.5498ZM95.304 16.2664H121.387V16.5052H95.304V16.2664ZM121.387 16.9829H95.304V17.2218H121.387V16.9829ZM95.304 17.6995H121.387V17.9384H95.304V17.6995ZM121.387 18.4161H95.304V18.6549H121.387V18.4161Z" fill="black" fill-opacity="0.15"/>
<path fill-rule="evenodd" clip-rule="evenodd" d="M95.304 16.0515H121.387V16.2904H95.304V16.0515ZM95.304 16.7681H121.387V17.0069H95.304V16.7681ZM121.387 17.4847H95.304V17.7235H121.387V17.4847ZM95.304 18.2012H121.387V18.4401H95.304V18.2012ZM121.387 18.9178H95.304V19.1567H121.387V18.9178Z" fill="white" fill-opacity="0.03"/>
<path fill-rule="evenodd" clip-rule="evenodd" d="M95.5831 15.311H95.8622V19.3716H95.5831V15.311ZM96.4203 15.311H96.6994V19.3716H96.4203V15.311ZM97.5366 15.311H97.2575V19.3716H97.5366V15.311ZM98.0948 15.311H98.3738V19.3716H98.0948V15.311ZM99.2111 15.311H98.932V19.3716H99.2111V15.311ZM99.7692 15.311H100.048V19.3716H99.7692V15.311ZM100.886 15.311H100.606V19.3716H100.886V15.311ZM101.444 15.311H101.723V19.3716H101.444V15.311ZM102.56 15.311H102.281V19.3716H102.56V15.311ZM103.118 15.311H103.397V19.3716H103.118V15.311ZM104.234 15.311H103.955V19.3716H104.234V15.311ZM104.793 15.311H105.072V19.3716H104.793V15.311ZM105.909 15.311H105.63V19.3716H105.909V15.311ZM106.467 15.311H106.746V19.3716H106.467V15.311ZM107.583 15.311H107.304V19.3716H107.583V15.311ZM108.142 15.311H108.421V19.3716H108.142V15.311ZM109.258 15.311H108.979V19.3716H109.258V15.311ZM109.816 15.311H110.095V19.3716H109.816V15.311ZM110.932 15.311H110.653V19.3716H110.932V15.311ZM111.49 15.311H111.77V19.3716H111.49V15.311ZM112.607 15.311H112.328V19.3716H112.607V15.311ZM113.165 15.311H113.444V19.3716H113.165V15.311ZM114.281 15.311H114.002V19.3716H114.281V15.311ZM114.839 15.311H115.118V19.3716H114.839V15.311ZM115.956 15.311H115.677V19.3716H115.956V15.311ZM116.514 15.311H116.793V19.3716H116.514V15.311ZM117.63 15.311H117.351V19.3716H117.63V15.311ZM118.188 15.311H118.467V19.3716H118.188V15.311ZM119.305 15.311H119.026V19.3716H119.305V15.311ZM119.863 15.311H120.142V19.3716H119.863V15.311ZM120.979 15.311H120.7V19.3716H120.979V15.311Z" fill="black" fill-opacity="0.15"/>
<path fill-rule="evenodd" clip-rule="evenodd" d="M95.0815 15.311H95.3606V19.3716H95.0815V15.311ZM95.9187 15.311H96.1978V19.3716H95.9187V15.311ZM97.035 15.311H96.7559V19.3716H97.035V15.311ZM97.5932 15.311H97.8722V19.3716H97.5932V15.311ZM98.7095 15.311H98.4304V19.3716H98.7095V15.311ZM99.2676 15.311H99.5467V19.3716H99.2676V15.311ZM100.384 15.311H100.105V19.3716H100.384V15.311ZM100.942 15.311H101.221V19.3716H100.942V15.311ZM102.058 15.311H101.779V19.3716H102.058V15.311ZM102.617 15.311H102.896V19.3716H102.617V15.311ZM103.733 15.311H103.454V19.3716H103.733V15.311ZM104.291 15.311H104.57V19.3716H104.291V15.311ZM105.407 15.311H105.128V19.3716H105.407V15.311ZM105.965 15.311H106.245V19.3716H105.965V15.311ZM107.082 15.311H106.803V19.3716H107.082V15.311ZM107.64 15.311H107.919V19.3716H107.64V15.311ZM108.756 15.311H108.477V19.3716H108.756V15.311ZM109.314 15.311H109.593V19.3716H109.314V15.311ZM110.431 15.311H110.152V19.3716H110.431V15.311ZM110.989 15.311H111.268V19.3716H110.989V15.311ZM112.105 15.311H111.826V19.3716H112.105V15.311ZM112.663 15.311H112.942V19.3716H112.663V15.311ZM113.78 15.311H113.501V19.3716H113.78V15.311ZM114.338 15.311H114.617V19.3716H114.338V15.311ZM115.454 15.311H115.175V19.3716H115.454V15.311ZM116.012 15.311H116.291V19.3716H116.012V15.311ZM117.129 15.311H116.849V19.3716H117.129V15.311ZM117.687 15.311H117.966V19.3716H117.687V15.311ZM118.803 15.311H118.524V19.3716H118.803V15.311ZM119.361 15.311H119.64V19.3716H119.361V15.311ZM120.477 15.311H120.198V19.3716H120.477V15.311Z" fill="white" fill-opacity="0.03"/>
</g>
<g opacity="0.244441" filter="url(#filter12_ii_0_549)">
<rect x="95.304" y="15.5498" width="26.0832" height="3.5112" rx="1.7556" fill="black" fill-opacity="0.01"/>
</g>
<mask id="mask1_0_549" style="mask-type:alpha" maskUnits="userSpaceOnUse" x="95" y="15" width="27" height="5">
<rect x="95.304" y="15.5498" width="26.0832" height="3.5112" rx="1.7556" fill="white"/>
</mask>
<g mask="url(#mask1_0_549)">
</g>
</g>
<g clip-path="url(#clip5_0_549)">
<path fill-rule="evenodd" clip-rule="evenodd" d="M131.252 20.3985C133.007 20.3985 134.429 18.9762 134.429 17.2217C134.429 15.4672 133.007 14.0449 131.252 14.0449C129.498 14.0449 128.075 15.4672 128.075 17.2217C128.075 18.9762 129.498 20.3985 131.252 20.3985Z" fill="url(#paint12_radial_0_549)"/>
<g opacity="0.387535" filter="url(#filter13_dd_0_549)">
<path fill-rule="evenodd" clip-rule="evenodd" d="M131.252 18.8938C132.175 18.8938 132.924 18.1452 132.924 17.2218C132.924 16.2984 132.175 15.5498 131.252 15.5498C130.329 15.5498 129.58 16.2984 129.58 17.2218C129.58 18.1452 130.329 18.8938 131.252 18.8938Z" fill="url(#paint13_radial_0_549)"/>
</g>
<mask id="mask2_0_549" style="mask-type:alpha" maskUnits="userSpaceOnUse" x="129" y="15" width="4" height="4">
<path fill-rule="evenodd" clip-rule="evenodd" d="M131.252 18.8938C132.175 18.8938 132.924 18.1452 132.924 17.2218C132.924 16.2984 132.175 15.5498 131.252 15.5498C130.329 15.5498 129.58 16.2984 129.58 17.2218C129.58 18.1452 130.329 18.8938 131.252 18.8938Z" fill="white"/>
</mask>
<g mask="url(#mask2_0_549)">
<g filter="url(#filter14_f_0_549)">
<path fill-rule="evenodd" clip-rule="evenodd" d="M130.212 16.7713C130.36 16.1774 130.786 15.7079 130.466 15.6282C130.146 15.5485 130.071 15.551 129.604 16.6798C129.136 17.8085 129.671 18.2777 129.991 18.3574C130.311 18.4371 130.064 17.3652 130.212 16.7713Z" fill="#3E89CC"/>
</g>
<g filter="url(#filter15_f_0_549)">
<path fill-rule="evenodd" clip-rule="evenodd" d="M132.59 18.0578C133.144 18.0578 133.593 17.4964 133.593 16.8038C133.593 16.1112 133.144 15.5498 132.59 15.5498C132.036 15.5498 131.586 16.1112 131.586 16.8038C131.586 17.4964 132.036 18.0578 132.59 18.0578Z" fill="#1C5894"/>
</g>
<g filter="url(#filter16_f_0_549)">
<path fill-rule="evenodd" clip-rule="evenodd" d="M131.871 19.448C132.661 19.2215 133.182 18.6201 133.034 18.1046C132.886 17.5892 132.126 17.3549 131.336 17.5814C130.546 17.8079 130.026 18.4093 130.174 18.9248C130.321 19.4402 131.081 19.6745 131.871 19.448Z" fill="#0A152B"/>
</g>
</g>
</g>
<mask id="mask3_0_549" style="mask-type:alpha" maskUnits="userSpaceOnUse" x="14" y="12" width="189" height="409">
<path fill-rule="evenodd" clip-rule="evenodd" d="M160.679 17.2217V17.3889C160.679 22.0361 157.134 27.9225 148.975 27.9225H67.716C59.5577 27.9225 56.012 22.0361 56.012 17.3889V17.2217C56.012 15.0724 56.012 12.8745 52.1664 12.8745H35.948C22.3939 12.8745 14.212 21.0564 14.212 34.6105V398.438C14.212 411.992 22.3939 420.174 35.948 420.174H180.576C194.13 420.174 202.312 411.992 202.312 398.438V34.6105C202.312 21.0564 194.13 12.8745 180.576 12.8745H164.525C160.679 12.8745 160.679 15.0724 160.679 17.2217Z" fill="white"/>
</mask>
<g mask="url(#mask3_0_549)">
<rect x="14.212" y="12.8745" width="188.1" height="407.299" fill="#1D2129"/>
<mask id="mask4_0_549" style="mask-type:alpha" maskUnits="userSpaceOnUse" x="14" y="12" width="189" height="409">
<rect x="14.212" y="12.8745" width="188.1" height="407.299" fill="white"/>
</mask>
<g mask="url(#mask4_0_549)">
<rect x="14" y="10" width="188" height="424"/>
</g>
</g>
<defs>
<filter id="filter0_d_0_549" x="6.212" y="423.206" width="204.1" height="22.1278" filterUnits="userSpaceOnUse" color-interpolation-filters="sRGB">
<feFlood flood-opacity="0" result="BackgroundImageFix"/>
<feColorMatrix in="SourceAlpha" type="matrix" values="0 0 0 0 0 0 0 0 0 0 0 0 0 0 0 0 0 0 127 0" result="hardAlpha"/>
<feOffset dy="1"/>
<feGaussianBlur stdDeviation="4"/>
<feColorMatrix type="matrix" values="0 0 0 0 0 0 0 0 0 0 0 0 0 0 0 0 0 0 0.12 0"/>
<feBlend mode="normal" in2="BackgroundImageFix" result="effect1_dropShadow_0_549"/>
<feBlend mode="normal" in="SourceGraphic" in2="effect1_dropShadow_0_549" result="shape"/>
</filter>
<filter id="filter1_d_0_549" x="14.3217" y="428.585" width="187.83" height="10.9022" filterUnits="userSpaceOnUse" color-interpolation-filters="sRGB">
<feFlood flood-opacity="0" result="BackgroundImageFix"/>
<feColorMatrix in="SourceAlpha" type="matrix" values="0 0 0 0 0 0 0 0 0 0 0 0 0 0 0 0 0 0 127 0" result="hardAlpha"/>
<feOffset dy="1"/>
<feGaussianBlur stdDeviation="1.5"/>
<feColorMatrix type="matrix" values="0 0 0 0 0 0 0 0 0 0 0 0 0 0 0 0 0 0 0.08 0"/>
<feBlend mode="normal" in2="BackgroundImageFix" result="effect1_dropShadow_0_549"/>
<feBlend mode="normal" in="SourceGraphic" in2="effect1_dropShadow_0_549" result="shape"/>
</filter>
<filter id="filter2_d_0_549" x="21.7424" y="430.519" width="173.29" height="6.45105" filterUnits="userSpaceOnUse" color-interpolation-filters="sRGB">
<feFlood flood-opacity="0" result="BackgroundImageFix"/>
<feColorMatrix in="SourceAlpha" type="matrix" values="0 0 0 0 0 0 0 0 0 0 0 0 0 0 0 0 0 0 127 0" result="hardAlpha"/>
<feOffset dy="1"/>
<feGaussianBlur stdDeviation="1"/>
<feColorMatrix type="matrix" values="0 0 0 0 0 0 0 0 0 0 0 0 0 0 0 0 0 0 0.24 0"/>
<feBlend mode="normal" in2="BackgroundImageFix" result="effect1_dropShadow_0_549"/>
<feBlend mode="normal" in="SourceGraphic" in2="effect1_dropShadow_0_549" result="shape"/>
</filter>
<filter id="filter3_i_0_549" x="2.3408" y="1.00317" width="211.842" height="431.042" filterUnits="userSpaceOnUse" color-interpolation-filters="sRGB">
<feFlood flood-opacity="0" result="BackgroundImageFix"/>
<feBlend mode="normal" in="SourceGraphic" in2="BackgroundImageFix" result="shape"/>
<feColorMatrix in="SourceAlpha" type="matrix" values="0 0 0 0 0 0 0 0 0 0 0 0 0 0 0 0 0 0 127 0" result="hardAlpha"/>
<feOffset/>
<feGaussianBlur stdDeviation="1"/>
<feComposite in2="hardAlpha" operator="arithmetic" k2="-1" k3="1"/>
<feColorMatrix type="matrix" values="0 0 0 0 0 0 0 0 0 0 0 0 0 0 0 0 0 0 0.5 0"/>
<feBlend mode="normal" in2="shape" result="effect1_innerShadow_0_549"/>
</filter>
<filter id="filter4_dd_0_549" x="6.688" y="4.18311" width="203.148" height="424.347" filterUnits="userSpaceOnUse" color-interpolation-filters="sRGB">
<feFlood flood-opacity="0" result="BackgroundImageFix"/>
<feColorMatrix in="SourceAlpha" type="matrix" values="0 0 0 0 0 0 0 0 0 0 0 0 0 0 0 0 0 0 127 0" result="hardAlpha"/>
<feOffset dy="1"/>
<feColorMatrix type="matrix" values="0 0 0 0 0 0 0 0 0 0 0 0 0 0 0 0 0 0 0.5 0"/>
<feBlend mode="normal" in2="BackgroundImageFix" result="effect1_dropShadow_0_549"/>
<feColorMatrix in="SourceAlpha" type="matrix" values="0 0 0 0 0 0 0 0 0 0 0 0 0 0 0 0 0 0 127 0" result="hardAlpha"/>
<feOffset dy="-1"/>
<feColorMatrix type="matrix" values="0 0 0 0 0 0 0 0 0 0 0 0 0 0 0 0 0 0 0.5 0"/>
<feBlend mode="normal" in2="effect1_dropShadow_0_549" result="effect2_dropShadow_0_549"/>
<feBlend mode="normal" in="SourceGraphic" in2="effect2_dropShadow_0_549" result="shape"/>
</filter>
<filter id="filter5_i_0_549" x="98.2563" y="432.379" width="20.1786" height="0.668823" filterUnits="userSpaceOnUse" color-interpolation-filters="sRGB">
<feFlood flood-opacity="0" result="BackgroundImageFix"/>
<feBlend mode="normal" in="SourceGraphic" in2="BackgroundImageFix" result="shape"/>
<feColorMatrix in="SourceAlpha" type="matrix" values="0 0 0 0 0 0 0 0 0 0 0 0 0 0 0 0 0 0 127 0" result="hardAlpha"/>
<feOffset/>
<feGaussianBlur stdDeviation="0.5"/>
<feComposite in2="hardAlpha" operator="arithmetic" k2="-1" k3="1"/>
<feColorMatrix type="matrix" values="0 0 0 0 0.592157 0 0 0 0 0.592157 0 0 0 0 0.592157 0 0 0 1 0"/>
<feBlend mode="normal" in2="shape" result="effect1_innerShadow_0_549"/>
</filter>
<filter id="filter6_i_0_549" x="194.791" y="8.13501" width="17.0448" height="415.941" filterUnits="userSpaceOnUse" color-interpolation-filters="sRGB">
<feFlood flood-opacity="0" result="BackgroundImageFix"/>
<feBlend mode="normal" in="SourceGraphic" in2="BackgroundImageFix" result="shape"/>
<feColorMatrix in="SourceAlpha" type="matrix" values="0 0 0 0 0 0 0 0 0 0 0 0 0 0 0 0 0 0 127 0" result="hardAlpha"/>
<feOffset dx="2"/>
<feGaussianBlur stdDeviation="1"/>
<feComposite in2="hardAlpha" operator="arithmetic" k2="-1" k3="1"/>
<feColorMatrix type="matrix" values="0 0 0 0 0 0 0 0 0 0 0 0 0 0 0 0 0 0 0.6 0"/>
<feBlend mode="normal" in2="shape" result="effect1_innerShadow_0_549"/>
</filter>
<filter id="filter7_i_0_549" x="6.69116" y="8.13501" width="17.0448" height="415.941" filterUnits="userSpaceOnUse" color-interpolation-filters="sRGB">
<feFlood flood-opacity="0" result="BackgroundImageFix"/>
<feBlend mode="normal" in="SourceGraphic" in2="BackgroundImageFix" result="shape"/>
<feColorMatrix in="SourceAlpha" type="matrix" values="0 0 0 0 0 0 0 0 0 0 0 0 0 0 0 0 0 0 127 0" result="hardAlpha"/>
<feOffset dx="2"/>
<feGaussianBlur stdDeviation="1"/>
<feComposite in2="hardAlpha" operator="arithmetic" k2="-1" k3="1"/>
<feColorMatrix type="matrix" values="0 0 0 0 0 0 0 0 0 0 0 0 0 0 0 0 0 0 0.6 0"/>
<feBlend mode="normal" in2="shape" result="effect1_innerShadow_0_549"/>
</filter>
<filter id="filter8_ii_0_549" x="0" y="57.52" width="1.8392" height="18.72" filterUnits="userSpaceOnUse" color-interpolation-filters="sRGB">
<feFlood flood-opacity="0" result="BackgroundImageFix"/>
<feBlend mode="normal" in="SourceGraphic" in2="BackgroundImageFix" result="shape"/>
<feColorMatrix in="SourceAlpha" type="matrix" values="0 0 0 0 0 0 0 0 0 0 0 0 0 0 0 0 0 0 127 0" result="hardAlpha"/>
<feOffset dy="1"/>
<feGaussianBlur stdDeviation="0.5"/>
<feComposite in2="hardAlpha" operator="arithmetic" k2="-1" k3="1"/>
<feColorMatrix type="matrix" values="0 0 0 0 0 0 0 0 0 0 0 0 0 0 0 0 0 0 0.757614 0"/>
<feBlend mode="normal" in2="shape" result="effect1_innerShadow_0_549"/>
<feColorMatrix in="SourceAlpha" type="matrix" values="0 0 0 0 0 0 0 0 0 0 0 0 0 0 0 0 0 0 127 0" result="hardAlpha"/>
<feOffset dy="-1"/>
<feGaussianBlur stdDeviation="0.5"/>
<feComposite in2="hardAlpha" operator="arithmetic" k2="-1" k3="1"/>
<feColorMatrix type="matrix" values="0 0 0 0 0 0 0 0 0 0 0 0 0 0 0 0 0 0 0.757614 0"/>
<feBlend mode="normal" in2="effect1_innerShadow_0_549" result="effect2_innerShadow_0_549"/>
</filter>
<filter id="filter9_ii_0_549" x="0" y="88.1177" width="1.8392" height="33.7679" filterUnits="userSpaceOnUse" color-interpolation-filters="sRGB">
<feFlood flood-opacity="0" result="BackgroundImageFix"/>
<feBlend mode="normal" in="SourceGraphic" in2="BackgroundImageFix" result="shape"/>
<feColorMatrix in="SourceAlpha" type="matrix" values="0 0 0 0 0 0 0 0 0 0 0 0 0 0 0 0 0 0 127 0" result="hardAlpha"/>
<feOffset dy="1"/>
<feGaussianBlur stdDeviation="0.5"/>
<feComposite in2="hardAlpha" operator="arithmetic" k2="-1" k3="1"/>
<feColorMatrix type="matrix" values="0 0 0 0 0 0 0 0 0 0 0 0 0 0 0 0 0 0 0.757614 0"/>
<feBlend mode="normal" in2="shape" result="effect1_innerShadow_0_549"/>
<feColorMatrix in="SourceAlpha" type="matrix" values="0 0 0 0 0 0 0 0 0 0 0 0 0 0 0 0 0 0 127 0" result="hardAlpha"/>
<feOffset dy="-1"/>
<feGaussianBlur stdDeviation="0.5"/>
<feComposite in2="hardAlpha" operator="arithmetic" k2="-1" k3="1"/>
<feColorMatrix type="matrix" values="0 0 0 0 0 0 0 0 0 0 0 0 0 0 0 0 0 0 0.757614 0"/>
<feBlend mode="normal" in2="effect1_innerShadow_0_549" result="effect2_innerShadow_0_549"/>
</filter>
<filter id="filter10_ii_0_549" x="0" y="127.744" width="1.8392" height="33.7679" filterUnits="userSpaceOnUse" color-interpolation-filters="sRGB">
<feFlood flood-opacity="0" result="BackgroundImageFix"/>
<feBlend mode="normal" in="SourceGraphic" in2="BackgroundImageFix" result="shape"/>
<feColorMatrix in="SourceAlpha" type="matrix" values="0 0 0 0 0 0 0 0 0 0 0 0 0 0 0 0 0 0 127 0" result="hardAlpha"/>
<feOffset dy="1"/>
<feGaussianBlur stdDeviation="0.5"/>
<feComposite in2="hardAlpha" operator="arithmetic" k2="-1" k3="1"/>
<feColorMatrix type="matrix" values="0 0 0 0 0 0 0 0 0 0 0 0 0 0 0 0 0 0 0.757614 0"/>
<feBlend mode="normal" in2="shape" result="effect1_innerShadow_0_549"/>
<feColorMatrix in="SourceAlpha" type="matrix" values="0 0 0 0 0 0 0 0 0 0 0 0 0 0 0 0 0 0 127 0" result="hardAlpha"/>
<feOffset dy="-1"/>
<feGaussianBlur stdDeviation="0.5"/>
<feComposite in2="hardAlpha" operator="arithmetic" k2="-1" k3="1"/>
<feColorMatrix type="matrix" values="0 0 0 0 0 0 0 0 0 0 0 0 0 0 0 0 0 0 0.757614 0"/>
<feBlend mode="normal" in2="effect1_innerShadow_0_549" result="effect2_innerShadow_0_549"/>
</filter>
<filter id="filter11_ii_0_549" x="214.685" y="98.484" width="1.8392" height="52.4944" filterUnits="userSpaceOnUse" color-interpolation-filters="sRGB">
<feFlood flood-opacity="0" result="BackgroundImageFix"/>
<feBlend mode="normal" in="SourceGraphic" in2="BackgroundImageFix" result="shape"/>
<feColorMatrix in="SourceAlpha" type="matrix" values="0 0 0 0 0 0 0 0 0 0 0 0 0 0 0 0 0 0 127 0" result="hardAlpha"/>
<feOffset dy="1"/>
<feGaussianBlur stdDeviation="0.5"/>
<feComposite in2="hardAlpha" operator="arithmetic" k2="-1" k3="1"/>
<feColorMatrix type="matrix" values="0 0 0 0 0 0 0 0 0 0 0 0 0 0 0 0 0 0 0.757614 0"/>
<feBlend mode="normal" in2="shape" result="effect1_innerShadow_0_549"/>
<feColorMatrix in="SourceAlpha" type="matrix" values="0 0 0 0 0 0 0 0 0 0 0 0 0 0 0 0 0 0 127 0" result="hardAlpha"/>
<feOffset dy="-1"/>
<feGaussianBlur stdDeviation="0.5"/>
<feComposite in2="hardAlpha" operator="arithmetic" k2="-1" k3="1"/>
<feColorMatrix type="matrix" values="0 0 0 0 0 0 0 0 0 0 0 0 0 0 0 0 0 0 0.757614 0"/>
<feBlend mode="normal" in2="effect1_innerShadow_0_549" result="effect2_innerShadow_0_549"/>
</filter>
<filter id="filter12_ii_0_549" x="95.304" y="15.5498" width="26.0832" height="3.51123" filterUnits="userSpaceOnUse" color-interpolation-filters="sRGB">
<feFlood flood-opacity="0" result="BackgroundImageFix"/>
<feBlend mode="normal" in="SourceGraphic" in2="BackgroundImageFix" result="shape"/>
<feColorMatrix in="SourceAlpha" type="matrix" values="0 0 0 0 0 0 0 0 0 0 0 0 0 0 0 0 0 0 127 0" result="hardAlpha"/>
<feOffset/>
<feGaussianBlur stdDeviation="0.5"/>
<feComposite in2="hardAlpha" operator="arithmetic" k2="-1" k3="1"/>
<feColorMatrix type="matrix" values="0 0 0 0 0 0 0 0 0 0 0 0 0 0 0 0 0 0 0.795035 0"/>
<feBlend mode="normal" in2="shape" result="effect1_innerShadow_0_549"/>
<feColorMatrix in="SourceAlpha" type="matrix" values="0 0 0 0 0 0 0 0 0 0 0 0 0 0 0 0 0 0 127 0" result="hardAlpha"/>
<feOffset dy="-1"/>
<feComposite in2="hardAlpha" operator="arithmetic" k2="-1" k3="1"/>
<feColorMatrix type="matrix" values="0 0 0 0 0 0 0 0 0 0 0 0 0 0 0 0 0 0 0.80013 0"/>
<feBlend mode="normal" in2="effect1_innerShadow_0_549" result="effect2_innerShadow_0_549"/>
</filter>
<filter id="filter13_dd_0_549" x="128.58" y="14.5498" width="5.344" height="5.34399" filterUnits="userSpaceOnUse" color-interpolation-filters="sRGB">
<feFlood flood-opacity="0" result="BackgroundImageFix"/>
<feColorMatrix in="SourceAlpha" type="matrix" values="0 0 0 0 0 0 0 0 0 0 0 0 0 0 0 0 0 0 127 0" result="hardAlpha"/>
<feOffset/>
<feGaussianBlur stdDeviation="0.5"/>
<feColorMatrix type="matrix" values="0 0 0 0 0 0 0 0 0 0 0 0 0 0 0 0 0 0 0.4 0"/>
<feBlend mode="normal" in2="BackgroundImageFix" result="effect1_dropShadow_0_549"/>
<feColorMatrix in="SourceAlpha" type="matrix" values="0 0 0 0 0 0 0 0 0 0 0 0 0 0 0 0 0 0 127 0" result="hardAlpha"/>
<feOffset/>
<feColorMatrix type="matrix" values="0 0 0 0 0 0 0 0 0 0 0 0 0 0 0 0 0 0 1 0"/>
<feBlend mode="normal" in2="effect1_dropShadow_0_549" result="effect2_dropShadow_0_549"/>
<feBlend mode="normal" in="SourceGraphic" in2="effect2_dropShadow_0_549" result="shape"/>
</filter>
<filter id="filter14_f_0_549" x="128.511" y="14.6894" width="2.98026" height="4.58117" filterUnits="userSpaceOnUse" color-interpolation-filters="sRGB">
<feFlood flood-opacity="0" result="BackgroundImageFix"/>
<feBlend mode="normal" in="SourceGraphic" in2="BackgroundImageFix" result="shape"/>
<feGaussianBlur stdDeviation="0.454497" result="effect1_foregroundBlur_0_549"/>
</filter>
<filter id="filter15_f_0_549" x="130.677" y="14.6408" width="3.82438" height="4.32604" filterUnits="userSpaceOnUse" color-interpolation-filters="sRGB">
<feFlood flood-opacity="0" result="BackgroundImageFix"/>
<feBlend mode="normal" in="SourceGraphic" in2="BackgroundImageFix" result="shape"/>
<feGaussianBlur stdDeviation="0.454497" result="effect1_foregroundBlur_0_549"/>
</filter>
<filter id="filter16_f_0_549" x="129.466" y="16.8127" width="4.27533" height="3.40422" filterUnits="userSpaceOnUse" color-interpolation-filters="sRGB">
<feFlood flood-opacity="0" result="BackgroundImageFix"/>
<feBlend mode="normal" in="SourceGraphic" in2="BackgroundImageFix" result="shape"/>
<feGaussianBlur stdDeviation="0.341228" result="effect1_foregroundBlur_0_549"/>
</filter>
<linearGradient id="paint0_linear_0_549" x1="101.548" y1="3.17676" x2="101.548" y2="30.4996" gradientUnits="userSpaceOnUse">
<stop stop-opacity="0.901495"/>
<stop offset="1" stop-opacity="0.01"/>
</linearGradient>
<linearGradient id="paint1_linear_0_549" x1="115.746" y1="429.871" x2="115.746" y2="399.71" gradientUnits="userSpaceOnUse">
<stop stop-opacity="0.9"/>
<stop offset="1" stop-opacity="0.01"/>
</linearGradient>
<linearGradient id="paint2_linear_0_549" x1="101.415" y1="4.68164" x2="101.415" y2="31.7903" gradientUnits="userSpaceOnUse">
<stop stop-opacity="0.5"/>
<stop offset="1" stop-opacity="0.01"/>
</linearGradient>
<linearGradient id="paint3_linear_0_549" x1="115.82" y1="428.032" x2="115.82" y2="398.107" gradientUnits="userSpaceOnUse">
<stop stop-opacity="0.5"/>
<stop offset="1" stop-opacity="0.01"/>
</linearGradient>
<linearGradient id="paint4_linear_0_549" x1="4.5144" y1="3.17676" x2="4.5144" y2="429.871" gradientUnits="userSpaceOnUse">
<stop stop-color="#5F5F5F"/>
<stop offset="0.0101238" stop-color="#222222"/>
<stop offset="1" stop-color="#252525"/>
</linearGradient>
<linearGradient id="paint5_linear_0_549" x1="6.688" y1="5.18311" x2="6.688" y2="427.53" gradientUnits="userSpaceOnUse">
<stop stop-color="#6D6D6D"/>
<stop offset="0.0161168"/>
<stop offset="0.984697"/>
<stop offset="1" stop-color="#5C5C5C"/>
</linearGradient>
<radialGradient id="paint6_radial_0_549" cx="0" cy="0" r="1" gradientUnits="userSpaceOnUse" gradientTransform="translate(103.484 423.277) rotate(90) scale(122.297 42.9443)">
<stop stop-color="white" stop-opacity="0.151268"/>
<stop offset="1" stop-color="white" stop-opacity="0.01"/>
</radialGradient>
<linearGradient id="paint7_linear_0_549" x1="0.499923" y1="68.3393" x2="1.00547" y2="68.3393" gradientUnits="userSpaceOnUse">
<stop stop-color="#A5A5A5"/>
<stop offset="0.00734796" stop-color="#E2E2E2"/>
<stop offset="0.994739" stop-color="#BEBEBE"/>
<stop offset="1" stop-color="#9D9D9D"/>
</linearGradient>
<linearGradient id="paint8_linear_0_549" x1="0.499923" y1="107.774" x2="1.00547" y2="107.774" gradientUnits="userSpaceOnUse">
<stop stop-color="#A5A5A5"/>
<stop offset="0.00734796" stop-color="#E2E2E2"/>
<stop offset="0.994739" stop-color="#BEBEBE"/>
<stop offset="1" stop-color="#9D9D9D"/>
</linearGradient>
<linearGradient id="paint9_linear_0_549" x1="0.499923" y1="147.401" x2="1.00547" y2="147.401" gradientUnits="userSpaceOnUse">
<stop stop-color="#A5A5A5"/>
<stop offset="0.00734796" stop-color="#E2E2E2"/>
<stop offset="0.994739" stop-color="#BEBEBE"/>
<stop offset="1" stop-color="#9D9D9D"/>
</linearGradient>
<linearGradient id="paint10_linear_0_549" x1="215.889" y1="122.588" x2="215.86" y2="122.588" gradientUnits="userSpaceOnUse">
<stop stop-color="#8E8E8E"/>
<stop offset="1" stop-color="#BCBCBC"/>
</linearGradient>
<linearGradient id="paint11_linear_0_549" x1="216.524" y1="99.484" x2="216.524" y2="149.978" gradientUnits="userSpaceOnUse">
<stop stop-opacity="0.996971"/>
<stop offset="0.0951211" stop-opacity="0.01"/>
<stop offset="0.895463" stop-opacity="0.01"/>
<stop offset="1" stop-opacity="0.881058"/>
</linearGradient>
<radialGradient id="paint12_radial_0_549" cx="0" cy="0" r="1" gradientUnits="userSpaceOnUse" gradientTransform="translate(135.767 22.5667) rotate(45.1938) scale(6.39562)">
<stop stop-color="#434343"/>
<stop offset="1" stop-color="#121212"/>
</radialGradient>
<radialGradient id="paint13_radial_0_549" cx="0" cy="0" r="1" gradientUnits="userSpaceOnUse" gradientTransform="translate(131.252 15.5498) rotate(90) scale(3.344)">
<stop stop-color="#2A4893"/>
<stop offset="1" stop-color="#213054"/>
</radialGradient>
<clipPath id="clip0_0_549">
<rect width="214" height="434" fill="white" transform="translate(1.3376)"/>
</clipPath>
<clipPath id="clip1_0_549">
<rect width="26" height="1" fill="white" transform="translate(95.8056 432.379)"/>
</clipPath>
<clipPath id="clip2_0_549">
<rect width="204" height="417" fill="white" transform="translate(6.688 8.02563)"/>
</clipPath>
<clipPath id="clip3_0_549">
<rect width="217" height="102" fill="white" transform="translate(0 58.52)"/>
</clipPath>
<clipPath id="clip4_0_549">
<rect width="27" height="4" fill="white" transform="translate(95.304 15.5498)"/>
</clipPath>
<clipPath id="clip5_0_549">
<rect width="7" height="7" fill="white" transform="translate(128.075 14.0449)"/>
</clipPath>
</defs>
</svg>
