<svg width="215" height="434" viewBox="0 0 215 434" fill="none" xmlns="http://www.w3.org/2000/svg">
<g clip-path="url(#clip0_0_556)">
<path fill-rule="evenodd" clip-rule="evenodd" d="M38.292 0H176.232C202.748 0 214.186 13.11 214.186 37.9544V395.094C214.186 419.102 201.912 433.048 176.232 433.048H38.292C11.7756 433.048 0.3376 419.938 0.3376 395.094V37.9544C0.3376 13.11 11.7756 0 38.292 0Z" fill="black"/>
<g filter="url(#filter0_i_0_556)">
<path fill-rule="evenodd" clip-rule="evenodd" d="M38.292 1.00317C12.9586 1.00317 1.3408 13.0143 1.3408 37.9544V395.094C1.3408 420.034 12.9586 432.045 38.292 432.045H176.232C200.74 432.045 213.183 419.187 213.183 395.094V37.9544C213.183 13.0143 201.565 1.00317 176.232 1.00317H38.292Z" fill="#C9C6C8"/>
</g>
<path fill-rule="evenodd" clip-rule="evenodd" d="M2.04782 27.3967C4.91202 10.7082 16.5515 3.17676 38.292 3.17676H176.232C197.973 3.17676 209.612 10.7082 212.476 27.3967C208.404 12.4655 196.897 4.68156 176.232 4.68156H38.292C17.6273 4.68156 6.12022 12.4655 2.04782 27.3967ZM1.90551 404.78C4.50776 422.08 16.171 429.871 38.292 429.871H176.232C197.913 429.871 210.153 421.218 212.687 403.866C208.706 419.332 196.747 428.032 176.232 428.032H38.292C17.3812 428.032 5.84749 420.062 1.90551 404.78Z" fill="url(#paint0_linear_0_556)"/>
<path fill-rule="evenodd" clip-rule="evenodd" d="M2.04782 27.3967C4.91202 10.7082 16.5515 3.17676 38.292 3.17676H176.232C197.973 3.17676 209.612 10.7082 212.476 27.3967C208.404 12.4655 196.897 4.68156 176.232 4.68156H38.292C17.6273 4.68156 6.12022 12.4655 2.04782 27.3967ZM1.90551 404.78C4.50776 422.08 16.171 429.871 38.292 429.871H176.232C197.913 429.871 210.153 421.218 212.687 403.866C208.706 419.332 196.747 428.032 176.232 428.032H38.292C17.3812 428.032 5.84749 420.062 1.90551 404.78Z" fill="url(#paint1_linear_0_556)"/>
<path fill-rule="evenodd" clip-rule="evenodd" d="M38.292 4.68164H176.232C202.748 4.68164 214.186 17.4981 214.186 41.7861V390.928C214.186 414.398 201.912 428.032 176.232 428.032H38.292C11.7756 428.032 0.3376 415.216 0.3376 390.928V41.7861C0.3376 17.4981 11.7756 4.68164 38.292 4.68164Z" fill="url(#paint2_linear_0_556)"/>
<path fill-rule="evenodd" clip-rule="evenodd" d="M38.292 4.68164H176.232C202.748 4.68164 214.186 17.4981 214.186 41.7861V390.928C214.186 414.398 201.912 428.032 176.232 428.032H38.292C11.7756 428.032 0.3376 415.216 0.3376 390.928V41.7861C0.3376 17.4981 11.7756 4.68164 38.292 4.68164Z" fill="url(#paint3_linear_0_556)"/>
<path d="M3.77565 37.9544C3.77565 26.0414 6.46786 17.4285 12.0954 11.7902C17.7228 6.15195 26.3356 3.43801 38.292 3.43801H176.232C188.188 3.43801 196.801 6.15195 202.429 11.7902C208.056 17.4285 210.748 26.0414 210.748 37.9544V395.094C210.748 406.579 207.852 415.195 202.117 420.942C196.382 426.689 187.766 429.61 176.232 429.61H38.292C26.3356 429.61 17.7228 426.896 12.0954 421.258C6.46786 415.619 3.77565 407.007 3.77565 395.094V37.9544Z" fill="url(#paint4_linear_0_556)" stroke="black" stroke-width="0.5225"/>
<g filter="url(#filter1_dd_0_556)">
<path fill-rule="evenodd" clip-rule="evenodd" d="M38.292 5.18311H176.232C198.978 5.18311 208.836 15.0601 208.836 37.7871V394.926C208.836 416.815 198.143 427.53 176.232 427.53H38.292C15.5461 427.53 5.688 417.653 5.688 394.926V37.7871C5.688 15.0601 15.5461 5.18311 38.292 5.18311Z" fill="url(#paint5_linear_0_556)"/>
<path fill-rule="evenodd" clip-rule="evenodd" d="M38.292 5.18311H176.232C198.978 5.18311 208.836 15.0601 208.836 37.7871V394.926C208.836 416.815 198.143 427.53 176.232 427.53H38.292C15.5461 427.53 5.688 417.653 5.688 394.926V37.7871C5.688 15.0601 15.5461 5.18311 38.292 5.18311Z" fill="url(#paint6_radial_0_556)"/>
</g>
<path d="M38.292 8.5271C17.4005 8.5271 9.032 16.8993 9.032 37.7871V394.926C9.032 415.814 17.4005 424.186 38.292 424.186H176.232C196.288 424.186 205.492 414.977 205.492 394.926V37.7871C205.492 16.8993 197.123 8.5271 176.232 8.5271H38.292Z" fill="black"/>
</g>
<defs>
<filter id="filter0_i_0_556" x="1.3408" y="1.00317" width="211.842" height="431.042" filterUnits="userSpaceOnUse" color-interpolation-filters="sRGB">
<feFlood flood-opacity="0" result="BackgroundImageFix"/>
<feBlend mode="normal" in="SourceGraphic" in2="BackgroundImageFix" result="shape"/>
<feColorMatrix in="SourceAlpha" type="matrix" values="0 0 0 0 0 0 0 0 0 0 0 0 0 0 0 0 0 0 127 0" result="hardAlpha"/>
<feOffset/>
<feGaussianBlur stdDeviation="1"/>
<feComposite in2="hardAlpha" operator="arithmetic" k2="-1" k3="1"/>
<feColorMatrix type="matrix" values="0 0 0 0 0 0 0 0 0 0 0 0 0 0 0 0 0 0 0.5 0"/>
<feBlend mode="normal" in2="shape" result="effect1_innerShadow_0_556"/>
</filter>
<filter id="filter1_dd_0_556" x="5.688" y="4.18311" width="203.148" height="424.347" filterUnits="userSpaceOnUse" color-interpolation-filters="sRGB">
<feFlood flood-opacity="0" result="BackgroundImageFix"/>
<feColorMatrix in="SourceAlpha" type="matrix" values="0 0 0 0 0 0 0 0 0 0 0 0 0 0 0 0 0 0 127 0" result="hardAlpha"/>
<feOffset dy="1"/>
<feColorMatrix type="matrix" values="0 0 0 0 0 0 0 0 0 0 0 0 0 0 0 0 0 0 0.5 0"/>
<feBlend mode="normal" in2="BackgroundImageFix" result="effect1_dropShadow_0_556"/>
<feColorMatrix in="SourceAlpha" type="matrix" values="0 0 0 0 0 0 0 0 0 0 0 0 0 0 0 0 0 0 127 0" result="hardAlpha"/>
<feOffset dy="-1"/>
<feColorMatrix type="matrix" values="0 0 0 0 0 0 0 0 0 0 0 0 0 0 0 0 0 0 0.5 0"/>
<feBlend mode="normal" in2="effect1_dropShadow_0_556" result="effect2_dropShadow_0_556"/>
<feBlend mode="normal" in="SourceGraphic" in2="effect2_dropShadow_0_556" result="shape"/>
</filter>
<linearGradient id="paint0_linear_0_556" x1="100.548" y1="3.17676" x2="100.548" y2="30.4996" gradientUnits="userSpaceOnUse">
<stop stop-opacity="0.901495"/>
<stop offset="1" stop-opacity="0.01"/>
</linearGradient>
<linearGradient id="paint1_linear_0_556" x1="114.746" y1="429.871" x2="114.746" y2="399.71" gradientUnits="userSpaceOnUse">
<stop stop-opacity="0.9"/>
<stop offset="1" stop-opacity="0.01"/>
</linearGradient>
<linearGradient id="paint2_linear_0_556" x1="100.415" y1="4.68164" x2="100.415" y2="31.7903" gradientUnits="userSpaceOnUse">
<stop stop-opacity="0.5"/>
<stop offset="1" stop-opacity="0.01"/>
</linearGradient>
<linearGradient id="paint3_linear_0_556" x1="114.82" y1="428.032" x2="114.82" y2="398.107" gradientUnits="userSpaceOnUse">
<stop stop-opacity="0.5"/>
<stop offset="1" stop-opacity="0.01"/>
</linearGradient>
<linearGradient id="paint4_linear_0_556" x1="3.5144" y1="3.17676" x2="3.5144" y2="429.871" gradientUnits="userSpaceOnUse">
<stop stop-color="#5F5F5F"/>
<stop offset="0.0101238" stop-color="#222222"/>
<stop offset="1" stop-color="#252525"/>
</linearGradient>
<linearGradient id="paint5_linear_0_556" x1="5.688" y1="5.18311" x2="5.688" y2="427.53" gradientUnits="userSpaceOnUse">
<stop stop-color="#6D6D6D"/>
<stop offset="0.0161168"/>
<stop offset="0.984697"/>
<stop offset="1" stop-color="#5C5C5C"/>
</linearGradient>
<radialGradient id="paint6_radial_0_556" cx="0" cy="0" r="1" gradientUnits="userSpaceOnUse" gradientTransform="translate(102.484 423.277) rotate(90) scale(122.297 42.9443)">
<stop stop-color="white" stop-opacity="0.151268"/>
<stop offset="1" stop-color="white" stop-opacity="0.01"/>
</radialGradient>
<clipPath id="clip0_0_556">
<rect width="214" height="434" fill="white" transform="translate(0.3376)"/>
</clipPath>
</defs>
</svg>
